<?xml version="1.0" encoding="UTF-8"?>
<svg xmlns="http://www.w3.org/2000/svg" xmlns:xlink="http://www.w3.org/1999/xlink" width="30pt" height="30pt" viewBox="0 0 30 30" version="1.1">
<g id="surface1">
<path style=" stroke:none;fill-rule:nonzero;fill:rgb(0%,59.607843%,27.45098%);fill-opacity:1;" d="M 14.953125 0 C 17.578125 0 20.039062 0.675781 22.183594 1.859375 L 17.785156 6.257812 C 16.894531 5.96875 15.941406 5.8125 14.953125 5.8125 C 12.429688 5.8125 10.144531 6.835938 8.488281 8.488281 C 6.835938 10.144531 5.8125 12.429688 5.8125 14.957031 C 5.8125 17.484375 6.835938 19.769531 8.488281 21.425781 C 10.144531 23.082031 12.429688 24.105469 14.953125 24.105469 C 17.480469 24.105469 19.765625 23.082031 21.421875 21.425781 C 23.074219 19.773438 24.097656 17.484375 24.097656 14.957031 C 24.097656 13.972656 23.941406 13.023438 23.65625 12.136719 L 28.054688 7.734375 C 29.234375 9.878906 29.910156 12.339844 29.910156 14.957031 C 29.910156 19.085938 28.238281 22.828125 25.53125 25.535156 C 22.824219 28.242188 19.082031 29.914062 14.953125 29.914062 C 10.828125 29.914062 7.085938 28.242188 4.378906 25.535156 C 1.671875 22.828125 0 19.085938 0 14.957031 C 0 10.828125 1.671875 7.089844 4.378906 4.382812 C 7.085938 1.671875 10.828125 0 14.953125 0 "/>
<path style=" stroke:none;fill-rule:nonzero;fill:rgb(49.411765%,49.411765%,49.411765%);fill-opacity:1;" d="M 29.914062 4.109375 L 19.347656 14.675781 L 19.335938 14.675781 L 17 17.011719 L 14.949219 19.058594 L 12.898438 17.011719 L 7.554688 11.667969 L 11.664062 7.554688 L 14.960938 10.855469 L 15.242188 10.574219 L 15.238281 10.566406 L 25.808594 0 Z M 29.914062 4.109375 "/>
</g>
</svg>
